<?xml version="1.0" encoding="UTF-8"?>
<svg id="Camada_2" data-name="Camada 2" xmlns="http://www.w3.org/2000/svg" xmlns:xlink="http://www.w3.org/1999/xlink" viewBox="0 0 856.91 792">
  <defs>
    <style>
      .cls-1 {
        fill: #011c41;
      }

      .cls-1, .cls-2 {
        fill-rule: evenodd;
      }

      .cls-2 {
        fill: #fff;
      }

      .cls-3 {
        fill: none;
      }

      .cls-4 {
        clip-path: url(#clippath);
      }
    </style>
    <clipPath id="clippath">
      <rect class="cls-3" width="856.91" height="792"/>
    </clipPath>
  </defs>
  <g id="Camada_1-2" data-name="Camada 1">
    <g>
      <g class="cls-4">
        <path class="cls-1" d="M1166.14,45.02c92.49-12.65,188.31-20.19,283.81-20.78,153.05-.6,305.21,14.76,458.26,17.77,145.52,3.01,291.05,0,436.57,0,717.97,0,1432.32,11.75,2149.99,11.75,264.83,0,533.58,7.84,796.61-11.75,51.52-3.92,100.93-14.76,152.75-17.77,54.23-3.02,114.79-13.26,163.6,0,48.8,13.26,73.81,44.59,98.22,70.8,27.11,29.53,42.48,62.07,54.53,94.61,49.42,133.77,10.85,289.24,10.85,425.42,0,29.53,23.5,62.07,0,88.58-21.4,24.1-73.81,37.66-119.92,47.3-146.12,30.43-372.09,17.77-523.93,17.77h-2935.76c-273.26,0-545.63,6.03-818.6,6.03-54.53,0-109.36,2.1-163.59,0-54.84-2.11-115.7,2.71-163.6-11.75-95.21-28.92-131.36-100.63-141.91-159.38-21.09-117.5,0-242.23,0-360.33,0-31.64-17.77-64.48,0-94.61,33.14-56.04,157.27-89.18,262.12-103.64ZM77.89,74.85c111.17-110.58,566.42-83.76,649.28,3.61,82.85,87.37,57.84,486.58,2.71,611.01-55.13,124.43-537.2,132.87-642.04,36.76C-17.32,630.13-33.29,185.12,77.89,74.85Z"/>
      </g>
      <path class="cls-2" d="M658.17,140.54c-14.76.9-29.23,7.53-39.77,19.58-31.03,35.26-62.37,69.9-94,104.55-62.36,67.49-125.64,134.98-181.98,207.59-6.32,8.13-12.65,16.27-18.38,24.7-9.34,14.16-17.17,29.23-26.81,43.09-3.61,5.42-8.13,10.25-12.06,15.37-1.5,1.8-3.01,3.92-4.22,5.73-9.64-8.14-18.08-17.78-25.91-27.42-6.63-8.13-12.65-16.87-18.98-25.3-5.12-6.93-9.94-13.86-14.16-21.69-8.74-15.97-15.37-32.84-22.29-49.42-6.03-14.46-11.75-28.93-18.38-43.09-12.95-27.42-45.5-39.16-72.92-26.21-27.42,12.95-39.16,45.49-26.21,72.91,14.46,30.43,25.01,62.67,40.37,92.5,9.94,18.97,22,36.45,34.65,53.63,12.95,17.47,26.81,34.95,42.48,50.01,16.87,15.97,36.15,29.83,57.54,38.57,10.85,4.52,21.7,7.24,33.44,6.93,20.19-.6,38.57-9.64,53.03-23.2,8.43-7.84,15.67-17.18,22.6-26.52,8.13-10.84,17.17-20.78,24.71-31.94,9.04-13.26,16.87-27.42,25.91-40.67,10.85-15.67,23.5-30.13,35.56-44.6,22.29-26.81,45.19-52.42,68.69-78.33,36.76-40.67,74.72-80.45,111.78-120.82,24.41-26.51,48.51-53.33,72.31-80.14,21.09-24.1,18.68-60.56-5.42-81.64-11.45-10.55-26.82-15.07-41.58-14.16Z"/>
    </g>
  </g>
</svg>